<mxfile host="app.diagrams.net" modified="2022-02-13T07:55:15.065Z" agent="5.0 (Macintosh; Intel Mac OS X 10_15_7) AppleWebKit/537.36 (KHTML, like Gecko) Chrome/98.0.4758.80 Safari/537.36" etag="LRCEIdHZjo73-HrcD1hD" version="16.2.7" type="github">
  <diagram id="ThXOSmCz_jN2v6HG7TD-" name="Page-1">
    <mxGraphModel dx="1700" dy="1601" grid="1" gridSize="10" guides="1" tooltips="1" connect="1" arrows="1" fold="1" page="1" pageScale="1" pageWidth="850" pageHeight="1100" math="0" shadow="0">
      <root>
        <mxCell id="0" />
        <mxCell id="1" parent="0" />
        <mxCell id="Y_1VOXkpBAcpGXNmEZOF-25" value="" style="swimlane;startSize=0;" vertex="1" parent="1">
          <mxGeometry x="110" y="-120" width="690" height="240" as="geometry" />
        </mxCell>
        <mxCell id="Y_1VOXkpBAcpGXNmEZOF-22" value="IP2（可用区2）" style="rounded=0;whiteSpace=wrap;html=1;" vertex="1" parent="Y_1VOXkpBAcpGXNmEZOF-25">
          <mxGeometry x="470" y="20" width="120" height="60" as="geometry" />
        </mxCell>
        <mxCell id="Y_1VOXkpBAcpGXNmEZOF-21" value="IP1(可用区A)" style="rounded=0;whiteSpace=wrap;html=1;" vertex="1" parent="Y_1VOXkpBAcpGXNmEZOF-25">
          <mxGeometry x="80" y="20" width="120" height="60" as="geometry" />
        </mxCell>
        <mxCell id="Y_1VOXkpBAcpGXNmEZOF-30" value="LB本身的高可用保证" style="text;html=1;strokeColor=none;fillColor=none;align=center;verticalAlign=middle;whiteSpace=wrap;rounded=0;" vertex="1" parent="Y_1VOXkpBAcpGXNmEZOF-25">
          <mxGeometry x="390" y="130" width="60" height="30" as="geometry" />
        </mxCell>
        <mxCell id="Y_1VOXkpBAcpGXNmEZOF-1" value="EC" style="rounded=0;whiteSpace=wrap;html=1;" vertex="1" parent="1">
          <mxGeometry x="160" y="310" width="110" height="60" as="geometry" />
        </mxCell>
        <mxCell id="Y_1VOXkpBAcpGXNmEZOF-2" value="EC" style="rounded=0;whiteSpace=wrap;html=1;" vertex="1" parent="1">
          <mxGeometry x="365" y="310" width="120" height="60" as="geometry" />
        </mxCell>
        <mxCell id="Y_1VOXkpBAcpGXNmEZOF-3" value="EC" style="rounded=0;whiteSpace=wrap;html=1;" vertex="1" parent="1">
          <mxGeometry x="590" y="310" width="120" height="60" as="geometry" />
        </mxCell>
        <mxCell id="Y_1VOXkpBAcpGXNmEZOF-6" style="rounded=0;orthogonalLoop=1;jettySize=auto;html=1;entryX=0.5;entryY=0;entryDx=0;entryDy=0;" edge="1" parent="1" target="Y_1VOXkpBAcpGXNmEZOF-1">
          <mxGeometry relative="1" as="geometry">
            <mxPoint x="300" y="220" as="sourcePoint" />
          </mxGeometry>
        </mxCell>
        <mxCell id="Y_1VOXkpBAcpGXNmEZOF-11" style="edgeStyle=none;rounded=0;orthogonalLoop=1;jettySize=auto;html=1;entryX=0.5;entryY=0;entryDx=0;entryDy=0;exitX=0.5;exitY=1;exitDx=0;exitDy=0;" edge="1" parent="1" source="Y_1VOXkpBAcpGXNmEZOF-4" target="Y_1VOXkpBAcpGXNmEZOF-2">
          <mxGeometry relative="1" as="geometry" />
        </mxCell>
        <mxCell id="Y_1VOXkpBAcpGXNmEZOF-12" style="edgeStyle=none;rounded=0;orthogonalLoop=1;jettySize=auto;html=1;entryX=0.5;entryY=0;entryDx=0;entryDy=0;exitX=0.5;exitY=1;exitDx=0;exitDy=0;" edge="1" parent="1" source="Y_1VOXkpBAcpGXNmEZOF-4" target="Y_1VOXkpBAcpGXNmEZOF-3">
          <mxGeometry relative="1" as="geometry" />
        </mxCell>
        <mxCell id="Y_1VOXkpBAcpGXNmEZOF-36" style="edgeStyle=none;rounded=0;orthogonalLoop=1;jettySize=auto;html=1;entryX=0.5;entryY=0;entryDx=0;entryDy=0;exitX=0.5;exitY=1;exitDx=0;exitDy=0;" edge="1" parent="1" source="Y_1VOXkpBAcpGXNmEZOF-4" target="Y_1VOXkpBAcpGXNmEZOF-35">
          <mxGeometry relative="1" as="geometry" />
        </mxCell>
        <mxCell id="Y_1VOXkpBAcpGXNmEZOF-4" value="Target Group A" style="rounded=0;whiteSpace=wrap;html=1;" vertex="1" parent="1">
          <mxGeometry x="240" y="160" width="120" height="60" as="geometry" />
        </mxCell>
        <mxCell id="Y_1VOXkpBAcpGXNmEZOF-13" style="edgeStyle=none;rounded=0;orthogonalLoop=1;jettySize=auto;html=1;entryX=0.5;entryY=0;entryDx=0;entryDy=0;exitX=0.5;exitY=1;exitDx=0;exitDy=0;" edge="1" parent="1" source="Y_1VOXkpBAcpGXNmEZOF-5" target="Y_1VOXkpBAcpGXNmEZOF-1">
          <mxGeometry relative="1" as="geometry" />
        </mxCell>
        <mxCell id="Y_1VOXkpBAcpGXNmEZOF-14" style="edgeStyle=none;rounded=0;orthogonalLoop=1;jettySize=auto;html=1;entryX=0.5;entryY=0;entryDx=0;entryDy=0;exitX=0.5;exitY=1;exitDx=0;exitDy=0;" edge="1" parent="1" source="Y_1VOXkpBAcpGXNmEZOF-5" target="Y_1VOXkpBAcpGXNmEZOF-2">
          <mxGeometry relative="1" as="geometry" />
        </mxCell>
        <mxCell id="Y_1VOXkpBAcpGXNmEZOF-15" style="edgeStyle=none;rounded=0;orthogonalLoop=1;jettySize=auto;html=1;entryX=0.5;entryY=0;entryDx=0;entryDy=0;exitX=0.5;exitY=1;exitDx=0;exitDy=0;" edge="1" parent="1" source="Y_1VOXkpBAcpGXNmEZOF-5" target="Y_1VOXkpBAcpGXNmEZOF-3">
          <mxGeometry relative="1" as="geometry" />
        </mxCell>
        <mxCell id="Y_1VOXkpBAcpGXNmEZOF-34" style="edgeStyle=none;rounded=0;orthogonalLoop=1;jettySize=auto;html=1;entryX=0.5;entryY=0;entryDx=0;entryDy=0;" edge="1" parent="1" target="Y_1VOXkpBAcpGXNmEZOF-33">
          <mxGeometry relative="1" as="geometry">
            <mxPoint x="540" y="220" as="sourcePoint" />
          </mxGeometry>
        </mxCell>
        <mxCell id="Y_1VOXkpBAcpGXNmEZOF-5" value="target group B" style="rounded=0;whiteSpace=wrap;html=1;" vertex="1" parent="1">
          <mxGeometry x="480" y="160" width="120" height="60" as="geometry" />
        </mxCell>
        <mxCell id="Y_1VOXkpBAcpGXNmEZOF-19" style="edgeStyle=none;rounded=0;orthogonalLoop=1;jettySize=auto;html=1;entryX=0.5;entryY=0;entryDx=0;entryDy=0;exitX=0.5;exitY=1;exitDx=0;exitDy=0;" edge="1" parent="1" source="Y_1VOXkpBAcpGXNmEZOF-16" target="Y_1VOXkpBAcpGXNmEZOF-4">
          <mxGeometry relative="1" as="geometry" />
        </mxCell>
        <mxCell id="Y_1VOXkpBAcpGXNmEZOF-20" style="edgeStyle=none;rounded=0;orthogonalLoop=1;jettySize=auto;html=1;entryX=0.5;entryY=0;entryDx=0;entryDy=0;exitX=0.5;exitY=1;exitDx=0;exitDy=0;" edge="1" parent="1" source="Y_1VOXkpBAcpGXNmEZOF-16" target="Y_1VOXkpBAcpGXNmEZOF-5">
          <mxGeometry relative="1" as="geometry" />
        </mxCell>
        <mxCell id="Y_1VOXkpBAcpGXNmEZOF-28" style="edgeStyle=none;rounded=0;orthogonalLoop=1;jettySize=auto;html=1;exitX=0.5;exitY=0;exitDx=0;exitDy=0;entryX=0.5;entryY=1;entryDx=0;entryDy=0;" edge="1" parent="1" source="Y_1VOXkpBAcpGXNmEZOF-16" target="Y_1VOXkpBAcpGXNmEZOF-22">
          <mxGeometry relative="1" as="geometry" />
        </mxCell>
        <mxCell id="Y_1VOXkpBAcpGXNmEZOF-29" style="edgeStyle=none;rounded=0;orthogonalLoop=1;jettySize=auto;html=1;entryX=0.5;entryY=1;entryDx=0;entryDy=0;exitX=0.5;exitY=0;exitDx=0;exitDy=0;" edge="1" parent="1" source="Y_1VOXkpBAcpGXNmEZOF-16" target="Y_1VOXkpBAcpGXNmEZOF-21">
          <mxGeometry relative="1" as="geometry" />
        </mxCell>
        <mxCell id="Y_1VOXkpBAcpGXNmEZOF-16" value="Load Balancer A" style="rounded=0;whiteSpace=wrap;html=1;" vertex="1" parent="1">
          <mxGeometry x="365" y="30" width="120" height="60" as="geometry" />
        </mxCell>
        <mxCell id="Y_1VOXkpBAcpGXNmEZOF-33" value="EC" style="rounded=0;whiteSpace=wrap;html=1;" vertex="1" parent="1">
          <mxGeometry x="760" y="310" width="120" height="60" as="geometry" />
        </mxCell>
        <mxCell id="Y_1VOXkpBAcpGXNmEZOF-35" value="EC" style="rounded=0;whiteSpace=wrap;html=1;" vertex="1" parent="1">
          <mxGeometry x="-10" y="310" width="110" height="60" as="geometry" />
        </mxCell>
      </root>
    </mxGraphModel>
  </diagram>
</mxfile>
